<svg width="289" height="363" viewBox="0 0 289 363" fill="none" xmlns="http://www.w3.org/2000/svg">
<g id="Frame 18">
<g id="Vector">
<path d="M86.9922 213.17L87.04 212.773C87.3813 211.067 87.04 209.701 86.016 208.677C84.992 207.312 83.6267 206.629 81.92 206.629H11.264C9.55733 206.629 8.02133 207.312 6.656 208.677C5.632 209.701 4.94933 211.067 4.608 212.773L1.024 242.981C0.341333 251.173 0 256.976 0 260.389C0 291.451 10.24 316.368 30.72 335.141C51.5413 353.573 79.7013 362.789 115.2 362.789C140.459 362.789 163.499 357.84 184.32 347.941C205.483 337.701 222.549 323.536 235.52 305.445C248.832 287.355 256.853 266.533 259.584 242.981L288.768 6.43726C289.109 4.7306 288.768 3.36526 287.744 2.34125C286.72 0.975916 285.355 0.293248 283.648 0.293248H213.504C211.797 0.293248 210.261 0.975916 208.896 2.34125C207.872 3.36526 207.189 4.7306 206.848 6.43726L193.292 116.072H219.592C246.076 116.072 261.096 146.406 245.043 167.469L114.675 338.52C96.5479 362.304 58.7615 344.922 65.027 315.681L86.9922 213.17Z" fill="#1C2121"/>
<path d="M175.577 1.4222L32.5388 168.649C28.0986 173.84 31.7873 181.849 38.6182 181.849H108.352C113.445 181.849 117.242 186.545 116.175 191.525L88.4944 320.709C87.5993 324.886 92.9973 327.37 95.5869 323.972L225.955 152.921C229.968 147.655 226.213 140.072 219.592 140.072H153.38C148.037 140.072 144.196 134.935 145.707 129.81L182.454 5.15327C183.674 1.015 178.382 -1.85638 175.577 1.4222Z" fill="#1C2121"/>
</g>
</g>
</svg>
