<svg width="2867" height="514" viewBox="0 0 2867 514" fill="none" xmlns="http://www.w3.org/2000/svg">
<g clip-path="url(#clip0_30_74)">
<path d="M2837.22 151.712C2848.83 151.712 2857.88 153.931 2864.36 158.368C2866.75 160.416 2867.43 162.976 2866.41 166.048L2846.44 237.216C2845.42 241.312 2842.86 242.507 2838.76 240.8C2833.3 239.435 2827.67 238.752 2821.86 238.752C2816.4 238.752 2812.14 239.094 2809.06 239.776C2798.82 241.142 2789.61 245.238 2781.42 252.064C2773.57 258.891 2768.96 267.936 2767.59 279.2L2751.21 413.856C2750.87 415.563 2750.01 417.099 2748.65 418.464C2747.62 419.488 2746.26 420 2744.55 420H2673.9C2672.19 420 2670.82 419.488 2669.8 418.464C2668.78 417.099 2668.44 415.563 2668.78 413.856L2699.5 161.44C2699.84 159.734 2700.52 158.368 2701.54 157.344C2702.91 155.979 2704.45 155.296 2706.15 155.296H2776.81C2778.52 155.296 2779.88 155.979 2780.9 157.344C2781.93 158.368 2782.27 159.734 2781.93 161.44L2779.88 177.824C2779.88 178.848 2780.22 179.531 2780.9 179.872C2781.59 180.214 2782.1 179.872 2782.44 178.848C2797.8 160.758 2816.06 151.712 2837.22 151.712Z" fill="#1C2121"/>
<path d="M2651.78 264.352C2652.12 274.592 2651.09 288.075 2648.7 304.8C2647.68 308.896 2645.12 310.944 2641.02 310.944H2489.98C2487.94 310.944 2486.91 311.797 2486.91 313.504C2487.25 318.624 2488.28 323.573 2489.98 328.352C2493.06 335.52 2498.35 341.323 2505.86 345.76C2513.37 350.197 2522.92 352.416 2534.53 352.416C2555.01 352.416 2572.25 345.419 2586.24 331.424C2587.61 329.717 2589.14 328.864 2590.85 328.864C2592.21 328.864 2593.41 329.547 2594.43 330.912L2627.2 375.968C2628.22 376.992 2628.74 378.187 2628.74 379.552C2628.74 380.917 2627.88 382.453 2626.18 384.16C2613.21 397.131 2597.67 407.029 2579.58 413.856C2561.83 420.683 2542.89 424.096 2522.75 424.096C2492.71 424.096 2467.97 417.44 2448.51 404.128C2429.06 390.475 2416.09 371.531 2409.6 347.296C2406.53 336.032 2404.99 323.915 2404.99 310.944C2404.99 303.776 2405.5 296.096 2406.53 287.904C2408.58 269.131 2413.53 250.528 2421.38 232.096C2432.98 206.837 2449.54 187.04 2471.04 172.704C2492.89 158.027 2517.29 150.688 2544.26 150.688C2566.1 150.688 2585.05 155.637 2601.09 165.536C2617.13 175.093 2629.42 188.576 2637.95 205.984C2646.83 223.051 2651.43 242.507 2651.78 264.352ZM2535.04 223.904C2518.31 223.904 2505.86 232.267 2497.66 248.992C2496.64 251.381 2495.45 254.965 2494.08 259.744C2493.4 261.451 2493.91 262.304 2495.62 262.304H2566.27C2567.98 262.304 2568.83 261.451 2568.83 259.744C2568.83 257.355 2568.49 254.112 2567.81 250.016C2566.44 241.483 2562.86 234.997 2557.06 230.56C2551.59 226.123 2544.26 223.904 2535.04 223.904Z" fill="#1C2121"/>
<path d="M2388.55 217.248C2388.55 218.955 2387.87 220.491 2386.5 221.856C2385.14 222.88 2383.6 223.392 2381.89 223.392H2336.84C2335.13 223.392 2334.28 224.246 2334.28 225.952L2322.5 319.136C2322.16 320.843 2321.99 323.232 2321.99 326.304C2321.99 340.982 2328.65 348.32 2341.96 348.32H2360.39C2362.1 348.32 2363.46 349.003 2364.48 350.368C2365.51 351.392 2365.85 352.758 2365.51 354.464L2358.34 413.856C2357.66 417.611 2355.44 419.83 2351.69 420.512C2335.3 421.195 2323.53 421.536 2316.36 421.536C2290.07 421.536 2270.45 417.782 2257.48 410.272C2244.85 402.763 2238.53 388.768 2238.53 368.288C2238.53 365.558 2238.87 360.779 2239.56 353.952L2254.92 225.952C2255.6 224.246 2254.92 223.392 2252.87 223.392H2224.71C2223 223.392 2221.64 222.88 2220.61 221.856C2219.59 220.491 2219.25 218.955 2219.59 217.248L2226.24 161.44C2226.59 159.734 2227.27 158.368 2228.29 157.344C2229.66 155.979 2231.19 155.296 2232.9 155.296H2261.06C2263.11 155.296 2264.13 154.443 2264.13 152.736L2271.81 90.7842C2272.15 89.0776 2272.84 87.7122 2273.86 86.6882C2275.23 85.3229 2276.76 84.6402 2278.47 84.6402H2345.54C2347.25 84.6402 2348.61 85.3229 2349.64 86.6882C2350.66 87.7122 2351 89.0776 2350.66 90.7842L2342.98 152.736C2342.98 154.443 2343.66 155.296 2345.03 155.296H2390.6C2392.3 155.296 2393.67 155.979 2394.69 157.344C2395.72 158.368 2396.06 159.734 2395.72 161.44L2388.55 217.248Z" fill="#1C2121"/>
<path d="M2179.72 151.712C2191.33 151.712 2200.38 153.931 2206.86 158.368C2209.25 160.416 2209.93 162.976 2208.91 166.048L2188.94 237.216C2187.92 241.312 2185.36 242.507 2181.26 240.8C2175.8 239.435 2170.17 238.752 2164.36 238.752C2158.9 238.752 2154.64 239.094 2151.56 239.776C2141.32 241.142 2132.11 245.238 2123.92 252.064C2116.07 258.891 2111.46 267.936 2110.09 279.2L2093.71 413.856C2093.37 415.563 2092.51 417.099 2091.15 418.464C2090.12 419.488 2088.76 420 2087.05 420H2016.4C2014.69 420 2013.32 419.488 2012.3 418.464C2011.28 417.099 2010.94 415.563 2011.28 413.856L2042 161.44C2042.34 159.734 2043.02 158.368 2044.04 157.344C2045.41 155.979 2046.95 155.296 2048.65 155.296H2119.31C2121.02 155.296 2122.38 155.979 2123.4 157.344C2124.43 158.368 2124.77 159.734 2124.43 161.44L2122.38 177.824C2122.38 178.848 2122.72 179.531 2123.4 179.872C2124.09 180.214 2124.6 179.872 2124.94 178.848C2140.3 160.758 2158.56 151.712 2179.72 151.712Z" fill="#1C2121"/>
<path d="M1918.23 161.44C1918.57 159.734 1919.25 158.368 1920.28 157.344C1921.64 155.979 1923.18 155.296 1924.88 155.296H1995.54C1997.25 155.296 1998.61 155.979 1999.64 157.344C2000.66 158.368 2001 159.734 2000.66 161.44L1969.43 413.856C1969.09 415.563 1968.23 417.099 1966.87 418.464C1965.84 419.488 1964.48 420 1962.77 420H1892.12C1890.41 420 1889.04 419.488 1888.02 418.464C1887 417.099 1886.65 415.563 1887 413.856L1889.56 394.4C1889.56 393.376 1889.21 392.694 1888.53 392.352C1888.19 392.011 1887.51 392.352 1886.48 393.376C1870.44 413.856 1849.45 424.096 1823.51 424.096C1801.32 424.096 1782.38 417.099 1766.68 403.104C1751.32 388.768 1741.59 369.483 1737.49 345.248C1736.13 338.08 1735.44 329.888 1735.44 320.672C1735.44 311.115 1736.3 299.851 1738 286.88C1740.73 261.622 1746.71 239.776 1755.92 221.344C1765.48 200.864 1779.48 184.139 1797.91 171.168C1816.34 157.856 1837.16 151.2 1860.37 151.2C1885.63 151.2 1903.21 159.904 1913.11 177.312C1913.79 178.336 1914.47 178.678 1915.16 178.336C1915.84 177.995 1916.18 177.312 1916.18 176.288L1918.23 161.44ZM1891.09 327.84C1896.89 318.283 1900.65 304.971 1902.36 287.904C1903.38 279.712 1903.89 272.715 1903.89 266.912C1903.89 259.062 1902.87 252.064 1900.82 245.92C1898.77 239.094 1895.19 233.803 1890.07 230.048C1885.29 225.952 1879.14 223.904 1871.64 223.904C1863.78 223.904 1856.79 225.952 1850.64 230.048C1844.5 234.144 1839.55 239.776 1835.8 246.944C1830.33 256.16 1826.41 269.814 1824.02 287.904C1823.34 292.683 1823 299.168 1823 307.36C1823 316.235 1823.85 323.232 1825.56 328.352C1827.6 335.179 1831.19 340.811 1836.31 345.248C1841.77 349.344 1848.42 351.392 1856.28 351.392C1871.29 351.392 1882.9 343.542 1891.09 327.84Z" fill="#1C2121"/>
<path d="M1719.55 217.248C1719.55 218.955 1718.87 220.491 1717.5 221.856C1716.14 222.88 1714.6 223.392 1712.89 223.392H1667.84C1666.13 223.392 1665.28 224.246 1665.28 225.952L1653.5 319.136C1653.16 320.843 1652.99 323.232 1652.99 326.304C1652.99 340.982 1659.64 348.32 1672.96 348.32H1691.39C1693.1 348.32 1694.46 349.003 1695.48 350.368C1696.51 351.392 1696.85 352.758 1696.51 354.464L1689.34 413.856C1688.66 417.611 1686.44 419.83 1682.68 420.512C1666.3 421.195 1654.52 421.536 1647.36 421.536C1621.07 421.536 1601.45 417.782 1588.48 410.272C1575.85 402.763 1569.53 388.768 1569.53 368.288C1569.53 365.558 1569.87 360.779 1570.56 353.952L1585.92 225.952C1586.6 224.246 1585.92 223.392 1583.87 223.392H1555.71C1554 223.392 1552.64 222.88 1551.61 221.856C1550.59 220.491 1550.25 218.955 1550.59 217.248L1557.24 161.44C1557.59 159.734 1558.27 158.368 1559.29 157.344C1560.66 155.979 1562.19 155.296 1563.9 155.296H1592.06C1594.11 155.296 1595.13 154.443 1595.13 152.736L1602.81 90.7842C1603.15 89.0776 1603.84 87.7122 1604.86 86.6882C1606.23 85.3229 1607.76 84.6402 1609.47 84.6402H1676.54C1678.25 84.6402 1679.61 85.3229 1680.64 86.6882C1681.66 87.7122 1682 89.0776 1681.66 90.7842L1673.98 152.736C1673.98 154.443 1674.66 155.296 1676.03 155.296H1721.6C1723.3 155.296 1724.67 155.979 1725.69 157.344C1726.72 158.368 1727.06 159.734 1726.72 161.44L1719.55 217.248Z" fill="#1C2121"/>
<path d="M1392.81 424.096C1359.7 424.096 1333.59 417.611 1314.47 404.64C1295.36 391.67 1285.8 374.432 1285.8 352.928C1285.8 349.174 1285.97 346.272 1286.31 344.224L1286.82 338.592C1287.17 336.886 1287.85 335.52 1288.87 334.496C1290.24 333.131 1291.77 332.448 1293.48 332.448H1360.55C1364.31 332.448 1366.18 334.496 1366.18 338.592C1365.16 345.078 1367.89 350.539 1374.38 354.976C1380.86 359.072 1389.39 361.12 1399.98 361.12C1409.87 361.12 1417.73 359.414 1423.53 356C1429.33 352.246 1432.23 347.467 1432.23 341.664C1432.23 336.886 1429.5 333.302 1424.04 330.912C1418.58 328.523 1409.7 326.134 1397.42 323.744C1377.28 319.307 1361.23 314.358 1349.29 308.896C1334.95 302.411 1323.52 294.56 1314.98 285.344C1306.45 275.787 1302.18 263.328 1302.18 247.968C1302.18 243.531 1302.35 240.118 1302.7 237.728C1306.11 211.104 1318.74 190.112 1340.58 174.752C1362.43 159.051 1389.74 151.2 1422.5 151.2C1453.57 151.2 1478.14 158.368 1496.23 172.704C1514.66 186.699 1523.88 205.472 1523.88 229.024C1523.88 233.462 1523.71 236.875 1523.37 239.264C1523.03 240.971 1522.17 242.507 1520.81 243.872C1519.44 244.896 1517.91 245.408 1516.2 245.408H1451.18C1449.47 245.408 1448.1 244.896 1447.08 243.872C1446.06 242.507 1445.71 240.971 1446.06 239.264C1446.74 232.779 1444.35 227.488 1438.89 223.392C1433.77 219.296 1426.09 217.248 1415.85 217.248C1405.95 217.248 1397.76 219.126 1391.27 222.88C1385.13 226.294 1382.06 231.072 1382.06 237.216C1382.06 242.678 1385.13 246.774 1391.27 249.504C1397.42 251.894 1407.31 254.283 1420.97 256.672C1439.06 260.427 1452.03 263.67 1459.88 266.4C1477.63 272.544 1491.45 280.736 1501.35 290.976C1511.25 300.875 1516.2 314.016 1516.2 330.4C1516.2 334.838 1516.03 338.251 1515.69 340.64C1512.27 367.264 1499.47 387.915 1477.29 402.592C1455.44 416.928 1427.28 424.096 1392.81 424.096Z" fill="#1C2121"/>
<path d="M1263.97 229.024C1265.67 239.947 1266.53 250.187 1266.53 259.744C1266.53 265.888 1265.85 275.446 1264.48 288.416C1261.07 312.992 1254.92 334.496 1246.05 352.928C1235.81 374.432 1221.47 391.67 1203.04 404.64C1184.95 417.611 1163.96 424.096 1140.06 424.096C1116.51 424.096 1099.45 416.075 1088.86 400.032C1088.18 399.008 1087.5 398.667 1086.82 399.008C1086.13 399.35 1085.79 400.032 1085.79 401.056L1072.48 507.552C1072.14 509.259 1071.29 510.624 1069.92 511.648C1068.9 513.014 1067.53 513.696 1065.82 513.696H995.168C993.461 513.696 992.096 513.014 991.072 511.648C990.048 510.624 989.707 509.259 990.048 507.552L1032.54 161.44C1032.89 159.734 1033.57 158.368 1034.59 157.344C1035.96 155.979 1037.49 155.296 1039.2 155.296H1109.86C1111.56 155.296 1112.93 155.979 1113.95 157.344C1114.98 158.368 1115.32 159.734 1114.98 161.44L1112.93 178.336C1112.93 180.384 1113.95 180.726 1116 179.36C1131.36 160.587 1151.5 151.2 1176.42 151.2C1198.94 151.2 1217.89 158.198 1233.25 172.192C1248.95 185.846 1259.19 204.79 1263.97 229.024ZM1163.1 332.96C1171.3 321.014 1176.42 305.654 1178.46 286.88C1179.15 283.126 1179.49 277.664 1179.49 270.496C1179.49 259.574 1177.95 250.528 1174.88 243.36C1170.1 230.39 1160.54 223.904 1146.21 223.904C1132.9 223.904 1121.97 230.39 1113.44 243.36C1106.27 255.648 1101.66 270.326 1099.62 287.392C1098.93 291.488 1098.59 297.291 1098.59 304.8C1098.59 315.723 1100.13 325.28 1103.2 333.472C1108.66 345.419 1117.71 351.392 1130.34 351.392C1144.33 351.392 1155.25 345.248 1163.1 332.96Z" fill="#1C2121"/>
<path d="M909.444 151.2C932.655 151.2 950.404 157.856 962.692 171.168C975.322 184.139 981.636 202.571 981.636 226.464C981.636 234.656 981.295 240.8 980.612 244.896L959.62 413.856C959.279 415.563 958.426 417.099 957.06 418.464C956.036 419.488 954.671 420 952.964 420H882.82C881.114 420 879.748 419.488 878.724 418.464C877.7 417.099 877.359 415.563 877.7 413.856L896.132 263.328C896.474 261.622 896.644 259.062 896.644 255.648C896.644 246.091 894.084 238.411 888.964 232.608C884.186 226.806 877.53 223.904 868.996 223.904C859.439 223.904 851.076 227.488 843.908 234.656C837.082 241.824 832.986 251.382 831.62 263.328L813.188 413.856C812.847 415.563 811.994 417.099 810.628 418.464C809.604 419.488 808.239 420 806.532 420H735.876C734.17 420 732.804 419.488 731.78 418.464C730.756 417.099 730.415 415.563 730.756 413.856L749.188 263.328C749.53 261.622 749.7 259.232 749.7 256.16C749.7 246.262 746.97 238.411 741.508 232.608C736.388 226.806 729.562 223.904 721.028 223.904C712.154 223.904 704.303 226.806 697.476 232.608C690.991 238.411 686.554 246.091 684.164 255.648L664.708 413.856C664.367 415.563 663.514 417.099 662.148 418.464C661.124 419.488 659.759 420 658.052 420H587.396C585.69 420 584.324 419.488 583.3 418.464C582.276 417.099 581.935 415.563 582.276 413.856L612.996 161.44C613.338 159.734 614.02 158.368 615.044 157.344C616.41 155.979 617.946 155.296 619.652 155.296H690.308C692.015 155.296 693.38 155.979 694.404 157.344C695.428 158.368 695.77 159.734 695.428 161.44L692.868 184.48C692.527 185.846 692.698 186.699 693.38 187.04C694.063 187.04 694.746 186.358 695.428 184.992C711.812 162.464 734.511 151.2 763.524 151.2C780.25 151.2 794.244 154.955 805.508 162.464C817.114 169.974 825.476 180.896 830.596 195.232C831.279 197.28 832.303 197.11 833.668 194.72C850.735 165.707 875.994 151.2 909.444 151.2Z" fill="#1C2121"/>
<path d="M488.976 161.44C489.317 159.734 490 158.368 491.024 157.344C492.389 155.979 493.925 155.296 495.632 155.296H566.288C567.995 155.296 569.36 155.979 570.384 157.344C571.408 158.368 571.749 159.734 571.408 161.44L540.688 413.856C540.347 415.563 539.493 417.099 538.128 418.464C537.104 419.488 535.739 420 534.032 420H463.376C461.669 420 460.304 419.488 459.28 418.464C458.256 417.099 457.915 415.563 458.256 413.856L460.304 395.936C460.645 394.912 460.475 394.23 459.792 393.888C459.109 393.547 458.427 393.888 457.744 394.912C442.043 414.368 419.856 424.096 391.184 424.096C368.656 424.096 350.736 417.611 337.424 404.64C324.112 391.328 317.456 372.555 317.456 348.32C317.456 340.811 317.797 335.008 318.48 330.912L338.96 161.44C339.301 159.734 340.155 158.368 341.52 157.344C342.885 155.979 344.421 155.296 346.128 155.296H416.272C417.979 155.296 419.344 155.979 420.368 157.344C421.392 158.368 421.733 159.734 421.392 161.44L402.96 311.456L402.448 318.112C402.448 328.352 405.008 336.374 410.128 342.176C415.248 347.979 422.416 350.88 431.632 350.88C440.848 350.88 448.869 347.979 455.696 342.176C462.523 336.374 467.301 328.694 470.032 319.136L488.976 161.44Z" fill="#1C2121"/>
<path d="M22.4259 273.773C22.4026 273.874 22.3806 273.977 22.3599 274.08L18.7759 304.288C18.0933 312.48 17.7519 318.283 17.7519 321.696C17.7519 352.758 27.9919 377.675 48.4719 396.448C50.0379 397.834 51.6454 399.169 53.2943 400.451L93.2971 273.773H22.4259Z" fill="#1C2121"/>
<path d="M126.129 423.98C128.372 424.057 130.647 424.096 132.952 424.096C158.211 424.096 181.251 419.147 202.072 409.248C223.235 399.008 240.301 384.843 253.272 366.752C266.584 348.662 274.605 327.84 277.336 304.288L283.492 254.395L126.129 423.98Z" fill="#1C2121"/>
<path d="M295.261 159H213.317L224.6 67.7442C224.941 66.0375 225.624 64.6722 226.648 63.6482C228.013 62.2829 229.549 61.6002 231.256 61.6002H301.4C303.107 61.6002 304.472 62.2829 305.496 63.6482C306.52 64.6722 306.861 66.0375 306.52 67.7442C302.105 103.524 299.583 123.968 295.261 159Z" fill="#1C2121"/>
<path d="M193.948 2.22086L3.46582 230.077C-3.06523 237.889 2.4897 249.773 12.6725 249.773H115.129C120.536 249.773 124.386 255.026 122.757 260.182L64.8592 443.529C63.5741 447.598 68.7028 450.582 71.6057 447.454L292.054 209.883C301.555 199.644 294.294 183 280.326 183H172.793C165.01 183 159.286 175.706 161.137 168.146L200.902 5.73767C201.91 1.62211 196.665 -1.02997 193.948 2.22086Z" fill="#1C2121"/>
</g>
<defs>
<clipPath id="clip0_30_74">
<rect width="2867" height="514" fill="white"/>
</clipPath>
</defs>
</svg>
