<svg width="2867" height="512" viewBox="0 0 2867 512" fill="none" xmlns="http://www.w3.org/2000/svg">
<path d="M2828.47 120.405C2840.08 120.405 2849.12 122.624 2855.61 127.061C2858 129.109 2858.68 131.669 2857.66 134.741L2837.69 205.909C2836.66 210.005 2834.1 211.2 2830.01 209.493C2824.55 208.128 2818.91 207.445 2813.11 207.445C2807.65 207.445 2803.38 207.787 2800.31 208.469C2790.07 209.835 2780.86 213.931 2772.66 220.757C2764.81 227.584 2760.21 236.629 2758.84 247.893L2742.46 382.549C2742.11 384.256 2741.26 385.792 2739.9 387.157C2738.87 388.181 2737.51 388.693 2735.8 388.693H2665.14C2663.44 388.693 2662.07 388.181 2661.05 387.157C2660.02 385.792 2659.68 384.256 2660.02 382.549L2690.74 130.133C2691.09 128.427 2691.77 127.061 2692.79 126.037C2694.16 124.672 2695.69 123.989 2697.4 123.989H2768.06C2769.76 123.989 2771.13 124.672 2772.15 126.037C2773.18 127.061 2773.52 128.427 2773.18 130.133L2771.13 146.517C2771.13 147.541 2771.47 148.224 2772.15 148.565C2772.83 148.907 2773.35 148.565 2773.69 147.541C2789.05 129.451 2807.31 120.405 2828.47 120.405Z" fill="#1C2121"/>
<path d="M2643.02 233.045C2643.37 243.285 2642.34 256.768 2639.95 273.493C2638.93 277.589 2636.37 279.637 2632.27 279.637H2481.23C2479.18 279.637 2478.16 280.49 2478.16 282.197C2478.5 287.317 2479.53 292.266 2481.23 297.045C2484.3 304.213 2489.59 310.016 2497.1 314.453C2504.61 318.89 2514.17 321.109 2525.78 321.109C2546.26 321.109 2563.49 314.112 2577.49 300.117C2578.85 298.41 2580.39 297.557 2582.1 297.557C2583.46 297.557 2584.66 298.24 2585.68 299.605L2618.45 344.661C2619.47 345.685 2619.98 346.88 2619.98 348.245C2619.98 349.61 2619.13 351.146 2617.42 352.853C2604.45 365.824 2588.92 375.722 2570.83 382.549C2553.08 389.376 2534.14 392.789 2514 392.789C2483.96 392.789 2459.22 386.133 2439.76 372.821C2420.3 359.168 2407.33 340.224 2400.85 315.989C2397.78 304.725 2396.24 292.608 2396.24 279.637C2396.24 272.469 2396.75 264.789 2397.78 256.597C2399.82 237.824 2404.77 219.221 2412.62 200.789C2424.23 175.53 2440.78 155.733 2462.29 141.397C2484.13 126.72 2508.54 119.381 2535.5 119.381C2557.35 119.381 2576.29 124.33 2592.34 134.229C2608.38 143.786 2620.67 157.269 2629.2 174.677C2638.07 191.744 2642.68 211.2 2643.02 233.045ZM2526.29 192.597C2509.56 192.597 2497.1 200.96 2488.91 217.685C2487.89 220.074 2486.69 223.658 2485.33 228.437C2484.65 230.144 2485.16 230.997 2486.86 230.997H2557.52C2559.23 230.997 2560.08 230.144 2560.08 228.437C2560.08 226.048 2559.74 222.805 2559.06 218.709C2557.69 210.176 2554.11 203.69 2548.3 199.253C2542.84 194.816 2535.5 192.597 2526.29 192.597Z" fill="#1C2121"/>
<path d="M2379.8 185.941C2379.8 187.648 2379.11 189.184 2377.75 190.549C2376.38 191.573 2374.85 192.085 2373.14 192.085H2328.08C2326.38 192.085 2325.52 192.939 2325.52 194.645L2313.75 287.829C2313.41 289.536 2313.24 291.925 2313.24 294.997C2313.24 309.675 2319.89 317.013 2333.2 317.013H2351.64C2353.34 317.013 2354.71 317.696 2355.73 319.061C2356.76 320.085 2357.1 321.451 2356.76 323.157L2349.59 382.549C2348.91 386.304 2346.69 388.523 2342.93 389.205C2326.55 389.888 2314.77 390.229 2307.6 390.229C2281.32 390.229 2261.69 386.475 2248.72 378.965C2236.09 371.456 2229.78 357.461 2229.78 336.981C2229.78 334.251 2230.12 329.472 2230.8 322.645L2246.16 194.645C2246.85 192.939 2246.16 192.085 2244.12 192.085H2215.96C2214.25 192.085 2212.88 191.573 2211.86 190.549C2210.84 189.184 2210.49 187.648 2210.84 185.941L2217.49 130.133C2217.83 128.427 2218.52 127.061 2219.54 126.037C2220.91 124.672 2222.44 123.989 2224.15 123.989H2252.31C2254.36 123.989 2255.38 123.136 2255.38 121.429L2263.06 59.4773C2263.4 57.7706 2264.08 56.4053 2265.11 55.3813C2266.47 54.016 2268.01 53.3333 2269.72 53.3333H2336.79C2338.49 53.3333 2339.86 54.016 2340.88 55.3813C2341.91 56.4053 2342.25 57.7706 2341.91 59.4773L2334.23 121.429C2334.23 123.136 2334.91 123.989 2336.28 123.989H2381.84C2383.55 123.989 2384.92 124.672 2385.94 126.037C2386.96 127.061 2387.31 128.427 2386.96 130.133L2379.8 185.941Z" fill="#1C2121"/>
<path d="M2170.97 120.405C2182.58 120.405 2191.62 122.624 2198.11 127.061C2200.5 129.109 2201.18 131.669 2200.16 134.741L2180.19 205.909C2179.16 210.005 2176.6 211.2 2172.51 209.493C2167.05 208.128 2161.41 207.445 2155.61 207.445C2150.15 207.445 2145.88 207.787 2142.81 208.469C2132.57 209.835 2123.36 213.931 2115.16 220.757C2107.31 227.584 2102.71 236.629 2101.34 247.893L2084.96 382.549C2084.61 384.256 2083.76 385.792 2082.4 387.157C2081.37 388.181 2080.01 388.693 2078.3 388.693H2007.64C2005.94 388.693 2004.57 388.181 2003.55 387.157C2002.52 385.792 2002.18 384.256 2002.52 382.549L2033.24 130.133C2033.59 128.427 2034.27 127.061 2035.29 126.037C2036.66 124.672 2038.19 123.989 2039.9 123.989H2110.56C2112.26 123.989 2113.63 124.672 2114.65 126.037C2115.68 127.061 2116.02 128.427 2115.68 130.133L2113.63 146.517C2113.63 147.541 2113.97 148.224 2114.65 148.565C2115.33 148.907 2115.85 148.565 2116.19 147.541C2131.55 129.451 2149.81 120.405 2170.97 120.405Z" fill="#1C2121"/>
<path d="M1909.48 130.133C1909.82 128.427 1910.5 127.061 1911.52 126.037C1912.89 124.672 1914.43 123.989 1916.13 123.989H1986.79C1988.49 123.989 1989.86 124.672 1990.88 126.037C1991.91 127.061 1992.25 128.427 1991.91 130.133L1960.68 382.549C1960.33 384.256 1959.48 385.792 1958.12 387.157C1957.09 388.181 1955.73 388.693 1954.02 388.693H1883.36C1881.66 388.693 1880.29 388.181 1879.27 387.157C1878.24 385.792 1877.9 384.256 1878.24 382.549L1880.8 363.093C1880.8 362.069 1880.46 361.387 1879.78 361.045C1879.44 360.704 1878.76 361.045 1877.73 362.069C1861.69 382.549 1840.7 392.789 1814.76 392.789C1792.57 392.789 1773.63 385.792 1757.92 371.797C1742.56 357.461 1732.84 338.176 1728.74 313.941C1727.37 306.773 1726.69 298.581 1726.69 289.365C1726.69 279.808 1727.55 268.544 1729.25 255.573C1731.98 230.315 1737.96 208.469 1747.17 190.037C1756.73 169.557 1770.72 152.832 1789.16 139.861C1807.59 126.549 1828.41 119.893 1851.62 119.893C1876.88 119.893 1894.46 128.597 1904.36 146.005C1905.04 147.029 1905.72 147.371 1906.4 147.029C1907.09 146.688 1907.43 146.005 1907.43 144.981L1909.48 130.133ZM1882.34 296.533C1888.14 286.976 1891.9 273.664 1893.6 256.597C1894.63 248.405 1895.14 241.408 1895.14 235.605C1895.14 227.755 1894.12 220.757 1892.07 214.613C1890.02 207.787 1886.44 202.496 1881.32 198.741C1876.54 194.645 1870.39 192.597 1862.88 192.597C1855.03 192.597 1848.04 194.645 1841.89 198.741C1835.75 202.837 1830.8 208.469 1827.04 215.637C1821.58 224.853 1817.66 238.507 1815.27 256.597C1814.59 261.376 1814.24 267.861 1814.24 276.053C1814.24 284.928 1815.1 291.925 1816.8 297.045C1818.85 303.872 1822.44 309.504 1827.56 313.941C1833.02 318.037 1839.67 320.085 1847.52 320.085C1862.54 320.085 1874.15 312.235 1882.34 296.533Z" fill="#1C2121"/>
<path d="M1710.8 185.941C1710.8 187.648 1710.11 189.184 1708.75 190.549C1707.38 191.573 1705.85 192.085 1704.14 192.085H1659.08C1657.38 192.085 1656.52 192.939 1656.52 194.645L1644.75 287.829C1644.41 289.536 1644.24 291.925 1644.24 294.997C1644.24 309.675 1650.89 317.013 1664.2 317.013H1682.64C1684.34 317.013 1685.71 317.696 1686.73 319.061C1687.76 320.085 1688.1 321.451 1687.76 323.157L1680.59 382.549C1679.91 386.304 1677.69 388.523 1673.93 389.205C1657.55 389.888 1645.77 390.229 1638.6 390.229C1612.32 390.229 1592.69 386.475 1579.72 378.965C1567.09 371.456 1560.78 357.461 1560.78 336.981C1560.78 334.251 1561.12 329.472 1561.8 322.645L1577.16 194.645C1577.85 192.939 1577.16 192.085 1575.12 192.085H1546.96C1545.25 192.085 1543.88 191.573 1542.86 190.549C1541.84 189.184 1541.49 187.648 1541.84 185.941L1548.49 130.133C1548.83 128.427 1549.52 127.061 1550.54 126.037C1551.91 124.672 1553.44 123.989 1555.15 123.989H1583.31C1585.36 123.989 1586.38 123.136 1586.38 121.429L1594.06 59.4773C1594.4 57.7706 1595.08 56.4053 1596.11 55.3813C1597.47 54.016 1599.01 53.3333 1600.72 53.3333H1667.79C1669.49 53.3333 1670.86 54.016 1671.88 55.3813C1672.91 56.4053 1673.25 57.7706 1672.91 59.4773L1665.23 121.429C1665.23 123.136 1665.91 123.989 1667.28 123.989H1712.84C1714.55 123.989 1715.92 124.672 1716.94 126.037C1717.96 127.061 1718.31 128.427 1717.96 130.133L1710.8 185.941Z" fill="#1C2121"/>
<path d="M1384.06 392.789C1350.95 392.789 1324.83 386.304 1305.72 373.333C1286.61 360.363 1277.05 343.125 1277.05 321.621C1277.05 317.867 1277.22 314.965 1277.56 312.917L1278.07 307.285C1278.41 305.579 1279.1 304.213 1280.12 303.189C1281.49 301.824 1283.02 301.141 1284.73 301.141H1351.8C1355.55 301.141 1357.43 303.189 1357.43 307.285C1356.41 313.771 1359.14 319.232 1365.62 323.669C1372.11 327.765 1380.64 329.813 1391.22 329.813C1401.12 329.813 1408.97 328.107 1414.78 324.693C1420.58 320.939 1423.48 316.16 1423.48 310.357C1423.48 305.579 1420.75 301.995 1415.29 299.605C1409.83 297.216 1400.95 294.827 1388.66 292.437C1368.53 288 1352.48 283.051 1340.54 277.589C1326.2 271.104 1314.77 263.253 1306.23 254.037C1297.7 244.48 1293.43 232.021 1293.43 216.661C1293.43 212.224 1293.6 208.811 1293.94 206.421C1297.36 179.797 1309.99 158.805 1331.83 143.445C1353.68 127.744 1380.98 119.893 1413.75 119.893C1444.81 119.893 1469.39 127.061 1487.48 141.397C1505.91 155.392 1515.13 174.165 1515.13 197.717C1515.13 202.155 1514.96 205.568 1514.62 207.957C1514.27 209.664 1513.42 211.2 1512.06 212.565C1510.69 213.589 1509.15 214.101 1507.45 214.101H1442.42C1440.72 214.101 1439.35 213.589 1438.33 212.565C1437.3 211.2 1436.96 209.664 1437.3 207.957C1437.99 201.472 1435.6 196.181 1430.14 192.085C1425.02 187.989 1417.34 185.941 1407.1 185.941C1397.2 185.941 1389.01 187.819 1382.52 191.573C1376.38 194.987 1373.3 199.765 1373.3 205.909C1373.3 211.371 1376.38 215.467 1382.52 218.197C1388.66 220.587 1398.56 222.976 1412.22 225.365C1430.31 229.12 1443.28 232.363 1451.13 235.093C1468.88 241.237 1482.7 249.429 1492.6 259.669C1502.5 269.568 1507.45 282.709 1507.45 299.093C1507.45 303.531 1507.28 306.944 1506.94 309.333C1503.52 335.957 1490.72 356.608 1468.54 371.285C1446.69 385.621 1418.53 392.789 1384.06 392.789Z" fill="#1C2121"/>
<path d="M1255.22 197.717C1256.92 208.64 1257.78 218.88 1257.78 228.437C1257.78 234.581 1257.09 244.139 1255.73 257.109C1252.31 281.685 1246.17 303.189 1237.3 321.621C1227.06 343.125 1212.72 360.363 1194.29 373.333C1176.2 386.304 1155.21 392.789 1131.31 392.789C1107.76 392.789 1090.69 384.768 1080.11 368.725C1079.43 367.701 1078.75 367.36 1078.06 367.701C1077.38 368.043 1077.04 368.725 1077.04 369.749L1063.73 476.245C1063.39 477.952 1062.53 479.317 1061.17 480.341C1060.14 481.707 1058.78 482.389 1057.07 482.389H986.416C984.709 482.389 983.344 481.707 982.32 480.341C981.296 479.317 980.955 477.952 981.296 476.245L1023.79 130.133C1024.13 128.427 1024.82 127.061 1025.84 126.037C1027.21 124.672 1028.74 123.989 1030.45 123.989H1101.1C1102.81 123.989 1104.18 124.672 1105.2 126.037C1106.22 127.061 1106.57 128.427 1106.22 130.133L1104.18 147.029C1104.18 149.077 1105.2 149.419 1107.25 148.053C1122.61 129.28 1142.75 119.893 1167.66 119.893C1190.19 119.893 1209.14 126.891 1224.5 140.885C1240.2 154.539 1250.44 173.483 1255.22 197.717ZM1154.35 301.653C1162.54 289.707 1167.66 274.347 1169.71 255.573C1170.39 251.819 1170.74 246.357 1170.74 239.189C1170.74 228.267 1169.2 219.221 1166.13 212.053C1161.35 199.083 1151.79 192.597 1137.46 192.597C1124.14 192.597 1113.22 199.083 1104.69 212.053C1097.52 224.341 1092.91 239.019 1090.86 256.085C1090.18 260.181 1089.84 265.984 1089.84 273.493C1089.84 284.416 1091.38 293.973 1094.45 302.165C1099.91 314.112 1108.95 320.085 1121.58 320.085C1135.58 320.085 1146.5 313.941 1154.35 301.653Z" fill="#1C2121"/>
<path d="M900.692 119.893C923.903 119.893 941.652 126.549 953.94 139.861C966.569 152.832 972.884 171.264 972.884 195.157C972.884 203.349 972.543 209.493 971.86 213.589L950.868 382.549C950.527 384.256 949.673 385.792 948.308 387.157C947.284 388.181 945.919 388.693 944.212 388.693H874.068C872.361 388.693 870.996 388.181 869.972 387.157C868.948 385.792 868.607 384.256 868.948 382.549L887.38 232.021C887.721 230.315 887.892 227.755 887.892 224.341C887.892 214.784 885.332 207.104 880.212 201.301C875.433 195.499 868.777 192.597 860.244 192.597C850.687 192.597 842.324 196.181 835.156 203.349C828.329 210.517 824.233 220.075 822.868 232.021L804.436 382.549C804.095 384.256 803.241 385.792 801.876 387.157C800.852 388.181 799.487 388.693 797.78 388.693H727.124C725.417 388.693 724.052 388.181 723.028 387.157C722.004 385.792 721.663 384.256 722.004 382.549L740.436 232.021C740.777 230.315 740.948 227.925 740.948 224.853C740.948 214.955 738.217 207.104 732.756 201.301C727.636 195.499 720.809 192.597 712.276 192.597C703.401 192.597 695.551 195.499 688.724 201.301C682.239 207.104 677.801 214.784 675.412 224.341L655.956 382.549C655.615 384.256 654.761 385.792 653.396 387.157C652.372 388.181 651.007 388.693 649.3 388.693H578.644C576.937 388.693 575.572 388.181 574.548 387.157C573.524 385.792 573.183 384.256 573.524 382.549L604.244 130.133C604.585 128.427 605.268 127.061 606.292 126.037C607.657 124.672 609.193 123.989 610.9 123.989H681.556C683.263 123.989 684.628 124.672 685.652 126.037C686.676 127.061 687.017 128.427 686.676 130.133L684.116 153.173C683.775 154.539 683.945 155.392 684.628 155.733C685.311 155.733 685.993 155.051 686.676 153.685C703.06 131.157 725.759 119.893 754.772 119.893C771.497 119.893 785.492 123.648 796.756 131.157C808.361 138.667 816.724 149.589 821.844 163.925C822.527 165.973 823.551 165.803 824.916 163.413C841.983 134.4 867.241 119.893 900.692 119.893Z" fill="#1C2121"/>
<path d="M480.224 130.133C480.565 128.427 481.248 127.061 482.272 126.037C483.637 124.672 485.173 123.989 486.88 123.989H557.536C559.243 123.989 560.608 124.672 561.632 126.037C562.656 127.061 562.997 128.427 562.656 130.133L531.936 382.549C531.595 384.256 530.741 385.792 529.376 387.157C528.352 388.181 526.987 388.693 525.28 388.693H454.624C452.917 388.693 451.552 388.181 450.528 387.157C449.504 385.792 449.163 384.256 449.504 382.549L451.552 364.629C451.893 363.605 451.723 362.923 451.04 362.581C450.357 362.24 449.675 362.581 448.992 363.605C433.291 383.061 411.104 392.789 382.432 392.789C359.904 392.789 341.984 386.304 328.672 373.333C315.36 360.021 308.704 341.248 308.704 317.013C308.704 309.504 309.045 303.701 309.728 299.605L330.208 130.133C330.549 128.427 331.403 127.061 332.768 126.037C334.133 124.672 335.669 123.989 337.376 123.989H407.52C409.227 123.989 410.592 124.672 411.616 126.037C412.64 127.061 412.981 128.427 412.64 130.133L394.208 280.149L393.696 286.805C393.696 297.045 396.256 305.067 401.376 310.869C406.496 316.672 413.664 319.573 422.88 319.573C432.096 319.573 440.117 316.672 446.944 310.869C453.771 305.067 458.549 297.387 461.28 287.829L480.224 130.133Z" fill="#1C2121"/>
<path d="M95.9922 243.17L96.04 242.773C96.3813 241.067 96.04 239.701 95.016 238.677C93.992 237.312 92.6267 236.629 90.92 236.629H20.264C18.5573 236.629 17.0213 237.312 15.656 238.677C14.632 239.701 13.9493 241.067 13.608 242.773L10.024 272.981C9.34133 281.173 9 286.976 9 290.389C9 321.451 19.24 346.368 39.72 365.141C60.5413 383.573 88.7013 392.789 124.2 392.789C149.459 392.789 172.499 387.84 193.32 377.941C214.483 367.701 231.549 353.536 244.52 335.445C257.832 317.355 265.853 296.533 268.584 272.981L297.768 36.4373C298.109 34.7306 297.768 33.3653 296.744 32.3413C295.72 30.9759 294.355 30.2932 292.648 30.2932H222.504C220.797 30.2932 219.261 30.9759 217.896 32.3413C216.872 33.3653 216.189 34.7306 215.848 36.4373L202.292 146.072H228.592C255.076 146.072 270.096 176.406 254.043 197.469L123.675 368.52C105.548 392.304 67.7615 374.922 74.027 345.681L95.9922 243.17Z" fill="#1C2121"/>
<path d="M184.577 31.4222L41.5388 198.649C37.0986 203.84 40.7873 211.849 47.6182 211.849H117.352C122.445 211.849 126.242 216.545 125.175 221.525L97.4944 350.709C96.5993 354.886 101.997 357.37 104.587 353.972L234.955 182.921C238.968 177.655 235.213 170.072 228.592 170.072H162.38C157.037 170.072 153.196 164.935 154.707 159.81L191.454 35.1533C192.674 31.015 187.382 28.1436 184.577 31.4222Z" fill="#FEBA2A"/>
</svg>
